<svg id="Ebene_1" data-name="Ebene 1" xmlns="http://www.w3.org/2000/svg" viewBox="0 0 273.59 315"><defs><style>.cls-1{fill:#8000ff;}.cls-2{fill:#f0f;}.cls-3{fill:none;}.cls-4{fill:blue;}.cls-5{fill:#4005ff;}.cls-6{fill:#8040ff;}.cls-7{fill:#ff40fe;}.cls-8{fill:#0040ff;}.cls-9{fill:#4040ff;}.cls-10{fill:#8080ff;}.cls-11{fill:#ff80ff;}.cls-12{fill:#ff8080;}.cls-13{fill:#ff8040;}.cls-14{fill:#ff8000;}.cls-15{fill:#ff4080;}.cls-16{fill:#ff4040;}.cls-17{fill:#ff4000;}.cls-18{fill:#ff0080;}.cls-19{fill:#ff0040;}.cls-20{fill:red;}.cls-21{fill:#0080ff;}.cls-22{fill:#4080ff;}.cls-23{fill:#80ffff;}.cls-24{fill:#fff;}.cls-25{fill:aqua;}.cls-26{fill:#40ffff;}.cls-27{fill:#80ff80;}.cls-28{fill:#ffff80;}.cls-29{fill:#00ff80;}.cls-30{fill:#40ff80;}.cls-31{fill:#80ff40;}.cls-32{fill:#ffff40;}.cls-33{fill:#00fe40;}.cls-34{fill:#40ff40;}.cls-35{fill:#80ff00;}.cls-36{fill:#ff0;}.cls-37{fill:lime;}.cls-38{fill:#40ff00;}</style></defs><title>CuboLogo</title><polygon class="cls-1" points="0 123.93 0 146.35 19.42 157.56 38.83 146.35 38.83 123.93 19.42 112.72 0 123.93"/><polygon class="cls-2" points="0 79.22 0 101.64 19.42 112.85 38.83 101.64 38.83 79.22 19.42 68.01 0 79.22"/><polygon class="cls-3" points="0 169.58 0 192 19.42 203.21 38.83 192 38.83 169.58 19.42 158.37 0 169.58"/><polygon class="cls-4" points="0 214.29 0 236.72 19.42 247.93 38.83 236.72 38.83 214.29 19.42 203.09 0 214.29"/><polygon class="cls-5" points="0 169.58 0 192 19.42 203.21 38.83 192 38.83 169.58 19.42 158.37 0 169.58"/><polygon class="cls-6" points="39.13 147.22 39.13 169.64 58.54 180.85 77.96 169.64 77.96 147.22 58.54 136.01 39.13 147.22"/><polygon class="cls-7" points="39.13 101.57 39.13 123.99 58.54 135.2 77.96 123.99 77.96 101.57 58.54 90.36 39.13 101.57"/><polygon class="cls-8" points="39.13 236.65 39.13 259.07 58.54 270.28 77.96 259.07 77.96 236.65 58.54 225.44 39.13 236.65"/><polygon class="cls-9" points="39.13 191.94 39.13 214.36 58.54 225.57 77.96 214.36 77.96 191.94 58.54 180.73 39.13 191.94"/><polygon class="cls-10" points="78.25 168.65 78.25 191.07 97.67 202.28 117.09 191.07 117.09 168.65 97.67 157.44 78.25 168.65"/><polygon class="cls-11" points="78.25 123.93 78.25 146.35 97.67 157.56 117.09 146.35 117.09 123.93 97.67 112.72 78.25 123.93"/><polygon class="cls-12" points="117.38 101.57 117.38 123.99 136.8 135.2 156.21 123.99 156.21 101.57 136.8 90.36 117.38 101.57"/><polygon class="cls-13" points="156.51 80.15 156.51 102.57 175.92 113.78 195.34 102.57 195.34 80.15 175.92 68.94 156.51 80.15"/><polygon class="cls-14" points="195.63 57.79 195.63 80.21 215.05 91.42 234.47 80.21 234.47 57.79 215.05 46.58 195.63 57.79"/><polygon class="cls-15" points="78.25 78.28 78.25 100.7 97.67 111.92 117.09 100.7 117.09 78.28 97.67 67.07 78.25 78.28"/><polygon class="cls-16" points="117.38 56.86 117.38 79.28 136.8 90.49 156.21 79.28 156.21 56.86 136.8 45.65 117.38 56.86"/><polygon class="cls-17" points="156.51 34.5 156.51 56.92 175.92 68.13 195.34 56.92 195.34 34.5 175.92 23.29 156.51 34.5"/><polygon class="cls-18" points="39.13 56.86 39.13 79.28 58.54 90.49 77.96 79.28 77.96 56.86 58.54 45.65 39.13 56.86"/><polygon class="cls-19" points="78.25 33.57 78.25 55.99 97.67 67.2 117.09 55.99 117.09 33.57 97.67 22.36 78.25 33.57"/><polygon class="cls-20" points="117.38 11.21 117.38 33.63 136.8 44.84 156.21 33.63 156.21 11.21 136.8 0 117.38 11.21"/><polygon class="cls-21" points="78.25 259.01 78.25 281.43 97.67 292.64 117.09 281.43 117.09 259.01 97.67 247.8 78.25 259.01"/><polygon class="cls-22" points="78.25 214.29 78.25 236.72 97.67 247.93 117.09 236.72 117.09 214.29 97.67 203.09 78.25 214.29"/><polygon class="cls-23" points="117.38 191.94 117.38 214.36 136.8 225.57 156.21 214.36 156.21 191.94 136.8 180.73 117.38 191.94"/><polygon class="cls-24" points="117.38 146.29 117.38 168.71 136.8 179.92 156.21 168.71 156.21 146.29 136.8 135.08 117.38 146.29"/><polygon class="cls-25" points="117.38 281.37 117.38 303.79 136.8 315 156.21 303.79 156.21 281.37 136.8 270.16 117.38 281.37"/><polygon class="cls-26" points="117.38 236.65 117.38 259.07 136.8 270.28 156.21 259.07 156.21 236.65 136.8 225.44 117.38 236.65"/><polygon class="cls-27" points="156.51 169.58 156.51 192 175.92 203.21 195.34 192 195.34 169.58 175.92 158.37 156.51 169.58"/><polygon class="cls-28" points="156.51 124.86 156.51 147.28 175.92 158.49 195.34 147.28 195.34 124.86 175.92 113.65 156.51 124.86"/><polygon class="cls-29" points="156.51 259.94 156.51 282.36 175.92 293.57 195.34 282.36 195.34 259.94 175.92 248.73 156.51 259.94"/><polygon class="cls-30" points="156.51 215.23 156.51 237.65 175.92 248.86 195.34 237.65 195.34 215.23 175.92 204.02 156.51 215.23"/><polygon class="cls-31" points="195.63 147.22 195.63 169.64 215.05 180.85 234.47 169.64 234.47 147.22 215.05 136.01 195.63 147.22"/><polygon class="cls-32" points="195.63 102.5 195.63 124.93 215.05 136.14 234.47 124.93 234.47 102.5 215.05 91.3 195.63 102.5"/><polygon class="cls-33" points="195.63 237.59 195.63 260 215.05 271.22 234.47 260 234.47 237.59 215.05 226.38 195.63 237.59"/><polygon class="cls-34" points="195.63 192.87 195.63 215.29 215.05 226.5 234.47 215.29 234.47 192.87 215.05 181.66 195.63 192.87"/><polygon class="cls-35" points="234.76 124.86 234.76 147.28 254.18 158.49 273.59 147.28 273.59 124.86 254.18 113.65 234.76 124.86"/><polygon class="cls-36" points="234.76 80.15 234.76 102.57 254.18 113.78 273.59 102.57 273.59 80.15 254.18 68.94 234.76 80.15"/><polygon class="cls-37" points="234.76 215.23 234.76 237.65 254.18 248.86 273.59 237.65 273.59 215.23 254.18 204.02 234.76 215.23"/><polygon class="cls-38" points="234.76 170.51 234.76 192.93 254.18 204.14 273.59 192.93 273.59 170.51 254.18 159.3 234.76 170.51"/></svg>